<svg width="298" height="185" viewBox="0 0 298 185" fill="none" xmlns="http://www.w3.org/2000/svg">
<path d="M123.332 65.3383C125.242 58.2725 127.725 51.4109 130.753 44.8368C133.897 38.4851 137.577 32.4741 141.745 26.8837C135.009 19.7327 127.267 13.8293 118.82 9.40235C107.93 3.86487 96.078 0.999404 84.0843 1.00403C71.6214 1.12839 63.065 3.11007 48.2922 9.87313C33.5195 16.6362 20.8586 33.3036 20.8586 33.3036C20.8586 33.3036 5.54282 50.5508 2.15722 77.8033C0.846214 88.3497 0.398465 97.2527 2.15722 107.833C3.92982 118.027 7.05794 127.878 11.4405 137.066C11.4405 137.066 18.6866 151.52 29.1167 161.554C39.5468 171.587 53.1647 177.207 53.1647 177.207C53.1647 177.207 67.9822 184.228 84.0895 183.994C100.197 183.761 117.584 176.274 117.584 176.274C122.687 173.644 127.578 170.542 132.205 167.002C138.922 161.693 140.518 159.5 144.45 155.037C155.161 142.874 160.431 127.623 160.431 127.623C160.431 127.623 162.638 123.2 164.67 114.575C165.44 111.305 165.458 110.997 166.459 102.13C167.46 93.2635 166.448 88.2455 168.526 78.866C170.603 69.4866 177.93 58.488 183.836 53.3715C186.112 51.3995 188.546 48.3237 195.643 45.3261C202.739 42.3286 207.582 41.5735 212.222 41.3805C217.601 41.2683 222.956 42.204 228.04 44.1447C232.928 45.6924 237.496 48.2703 241.492 51.7355C247.877 57.3801 253.597 66.4438 253.597 66.4438L293 66.7216C293 66.7216 289.529 54.7395 284.16 44.9022C280.58 38.5385 276.339 32.6561 271.523 27.3739C266.247 21.7825 260.405 16.88 254.11 12.7633C247.684 8.9236 240.877 5.91577 233.824 3.7997C226.726 2.07438 219.489 1.13647 212.222 1C201.474 1 189.853 4.68152 189.853 4.68152C182.753 7.19583 175.924 10.5607 169.49 14.7159C163.518 18.82 158.006 23.6868 153.069 29.2151C153.069 29.2151 143.937 41.2586 138.568 53.0154C133.2 64.7722 131.396 74.0112 130.759 91.2996C130.121 108.588 125.932 114.419 123.819 118.451C122.014 121.654 120.013 124.716 117.827 127.617C117.827 127.617 111.132 135.377 102.698 139.357C94.2631 143.336 84.0895 143.534 84.0895 143.534C84.0895 143.534 73.449 143.474 65.1023 139.496C56.7555 135.518 49.4376 127.067 49.4376 127.067C49.4376 127.067 39.3395 114.931 37.8181 99.3612C37.2128 93.1642 37.0853 89.0353 38.7854 80.5296C39.9339 75.1376 41.9065 70.0003 44.6186 65.3375C44.6186 65.3375 51.0674 54.3026 60.465 48.2179C69.8626 42.1331 81.4696 41.4403 81.4696 41.4403C81.4696 41.4403 95.0458 40.6109 105.329 46.6981C115.613 52.7853 123.332 65.3383 123.332 65.3383Z" fill="white" stroke="white" stroke-width="0.805688"/>
<path d="M224.455 78.025V117.768H254.262C251.438 122.997 247.826 127.669 243.58 131.585C239.321 135.49 232.884 139.903 221.962 142.178C211.04 144.453 199.892 140.684 199.892 140.684C199.892 140.684 191.567 137.645 185.137 132.319C180.908 128.635 177.213 124.273 174.179 119.38C172.27 126.584 169.775 133.587 166.724 140.304C163.719 146.441 160.124 152.209 156 157.512C156 157.512 167.436 170.916 183.517 177.199C200.251 183.866 218.443 184.81 235.679 179.907C242.513 177.791 249.144 174.96 255.481 171.451C261.102 167.697 266.381 163.363 271.246 158.508C275.965 153.499 280.233 148.005 283.991 142.103C287.204 136.575 289.914 130.716 292.081 124.61C295.333 115.155 295.238 112.48 295.867 108.102C296.63 102.231 297.009 96.3083 297 90.3786C297 83.7979 296.539 78 296.539 78L224.455 78.025Z" fill="white" stroke="white" stroke-width="0.805688"/>
</svg>
