<svg xmlns="http://www.w3.org/2000/svg" width="24" height="22.6" viewBox="0 0 24 22.6">
  <path id="iconmonstr-snapchat-1" d="M5.829,4.533c-.6,1.344-.363,3.752-.267,5.436-.648.359-1.48-.271-1.951-.271a1.192,1.192,0,0,0-1.167.8c-.066.346.089.85,1.2,1.289.43.17,1.453.37,1.69.928.333.784-1.71,4.4-4.918,4.931A.5.5,0,0,0,0,18.167c.056.975,2.242,1.357,3.211,1.507A8.744,8.744,0,0,1,3.518,20.8a.557.557,0,0,0,.582.424,8.306,8.306,0,0,1,2.738-.144c1.4.233,2.712,2.215,5.235,2.215,2.345,0,3.744-1.991,5.09-2.215a5.885,5.885,0,0,1,2.2.058c.515.1.977.157,1.124-.349a8.811,8.811,0,0,1,.305-1.123c.96-.149,3.156-.53,3.211-1.5a.5.5,0,0,0-.416-.519c-3.154-.52-5.259-4.128-4.918-4.931.236-.557,1.252-.755,1.69-.928.814-.321,1.222-.716,1.213-1.173-.011-.585-.715-.934-1.233-.934s-1.284.624-1.9.286c.1-1.7.332-4.095-.267-5.438A6.636,6.636,0,0,0,11.987.7,6.592,6.592,0,0,0,5.829,4.533Z" transform="translate(0 -0.7)" fill="#fff"/>
</svg>