<svg xmlns="http://www.w3.org/2000/svg" width="18" height="11.001" viewBox="0 0 24 11.001">
  <path id="iconmonstr-soundcloud-1" d="M7,17.939H6V9.871A4.1,4.1,0,0,1,7,9.3Zm3,0h1V8.715a5.576,5.576,0,0,0-.621.857L10,9.388Zm-2,0H9V9.091a2.827,2.827,0,0,0-1-.01Zm-4,0H5v-7.02a4.691,4.691,0,0,0-.692,1.535L4,12.272Zm-3-5.25a3.072,3.072,0,0,0,0,4.536Zm18.879-.671a5.29,5.29,0,0,0-5.117-5.079A4.846,4.846,0,0,0,12,7.816V17.939h9.089A3.015,3.015,0,0,0,24,14.833a2.922,2.922,0,0,0-4.121-2.815ZM3,11.991a2.184,2.184,0,0,0-1,.122V17.8a2.614,2.614,0,0,0,1,.138Z" transform="translate(0 -6.939)" fill="#fff"/>
</svg>